<?xml version="1.0" encoding="utf-8"?><svg version="1.1" id="Layer_1" xmlns="http://www.w3.org/2000/svg" xmlns:xlink="http://www.w3.org/1999/xlink" x="0px" y="0px" viewBox="0 0 122.88 119.34" style="enable-background:new 0 0 122.88 119.34" xml:space="preserve"><style type="text/css">.st0{fill-rule:evenodd;clip-rule:evenodd;}</style><g><path class="st0" d="M6.36,4.52h50.27c1.75,0,3.34,0.72,4.5,1.87C62.28,7.54,63,9.14,63,10.89v43.37L60.08,53V10.89 c0-0.94-0.39-1.81-1.01-2.43c-0.63-0.63-1.49-1.01-2.44-1.01l0,0H6.36c-0.91,0-1.75,0.36-2.38,0.95L3.93,8.46 c-0.62,0.62-1.01,1.49-1.01,2.43V91.1c0,0.94,0.39,1.81,1.01,2.43c0.62,0.62,1.49,1.01,2.43,1.01h15.19l0,2.92H6.36 c-1.74,0-3.34-0.72-4.49-1.87H1.87C0.72,94.45,0,92.85,0,91.1V10.89c0-1.75,0.72-3.34,1.87-4.49l0.09-0.08 C3.1,5.21,4.66,4.52,6.36,4.52L6.36,4.52L6.36,4.52z M37.15,76.66l21.25,8.65c0.67,0.27,1.79,0.45,2.46,0.17l22.5-9.19 c0.67-0.28-0.01-1.5-0.7-1.74l-22.68-7.95c-0.17-0.06-4.43,1.49-5.03,1.7l-18.5,6.61C35.74,75.18,36.23,76.28,37.15,76.66 L37.15,76.66L37.15,76.66z M84.55,107.09l-22.2,12.04c-0.64,0.35-1.53,0.3-1.53-0.43l0-28.34c0-0.73,0.06-1.44,0.73-1.73 l22.28-9.49c0.67-0.28,1.6-0.03,1.59,0.7l-0.15,25.52C85.28,106.09,85.19,106.74,84.55,107.09L84.55,107.09L84.55,107.09z M79.46,97.11c1.51,0.64,1.95,2.91,0.98,5.06c-0.97,2.15-2.99,3.36-4.5,2.72c-1.51-0.64-1.95-2.9-0.98-5.06 C75.93,97.69,77.95,96.47,79.46,97.11L79.46,97.11L79.46,97.11z M71.4,91.19c1.56,0.67,2.02,3.01,1.01,5.23 c-1,2.22-3.09,3.49-4.66,2.82c-1.57-0.67-2.02-3.01-1.01-5.23C67.75,91.78,69.83,90.52,71.4,91.19L71.4,91.19L71.4,91.19z M35.18,106.9l22,11.91c0.64,0.35,1.53,0.3,1.53-0.43l0-28.07c0-0.73-0.06-1.44-0.73-1.73L36,79.15c-0.67-0.29-1.59-0.03-1.59,0.7 l0.05,25.33C34.45,105.9,34.54,106.55,35.18,106.9L35.18,106.9L35.18,106.9z M37.37,99.11c1.38-0.87,3.43,0.13,4.57,2.23 c1.15,2.11,0.96,4.53-0.42,5.41c-1.38,0.88-3.43-0.12-4.58-2.23C35.81,102.4,35.99,99.98,37.37,99.11L37.37,99.11L37.37,99.11z M43.87,94.23c1.46-0.89,3.63,0.12,4.84,2.26c1.22,2.13,1.02,4.58-0.44,5.46c-1.46,0.88-3.63-0.13-4.84-2.26 C42.21,97.56,42.41,95.12,43.87,94.23L43.87,94.23L43.87,94.23z M50.76,89.08c1.47-0.89,3.65,0.12,4.88,2.26 c1.22,2.13,1.03,4.58-0.44,5.47c-1.47,0.89-3.65-0.12-4.88-2.26C49.09,92.41,49.29,89.97,50.76,89.08L50.76,89.08L50.76,89.08z M59.79,73.25c2.59,0,4.69,1,4.69,2.24s-2.1,2.24-4.69,2.24c-2.59,0-4.69-1-4.69-2.24S57.2,73.25,59.79,73.25L59.79,73.25 L59.79,73.25z M118.16,12.61L71.09,0l0.06,3.04l3.18,0.86l33.97,58.83l-3.2,11.93L71.4,16.29l0.12,6.03l32.52,56.31l-3.19,11.93 l-5.3-9.18l-0.03,5.77l3.81,6.6c0.14,0.22,0.31,0.41,0.52,0.52l-0.76,2.85c-0.24,0.91-0.85,1.65-1.61,2.08 c-0.6,0.35-1.32,0.52-2.05,0.45l-0.02,2.92c1.25,0.07,2.48-0.24,3.52-0.85c1.41-0.82,2.51-2.17,2.97-3.86l20.76-77.47 c0.46-1.69,0.17-3.42-0.64-4.83C121.2,14.17,119.85,13.07,118.16,12.61L118.16,12.61L118.16,12.61z M85.46,63.92L71.88,40.4 L72,46.44l8.98,15.56L85.46,63.92L85.46,63.92z M106.16,12.42l10.68,18.49l-3.2,11.92L94.23,9.21L106.16,12.42L106.16,12.42 L106.16,12.42z M117.89,26.91l-7.77-13.44l7.27,1.95c0.91,0.24,1.64,0.85,2.08,1.61c0.44,0.77,0.59,1.7,0.35,2.62L117.89,26.91 L117.89,26.91L117.89,26.91z M90.25,8.16l22.32,38.66l-3.2,11.93L78.32,4.95L90.25,8.16L90.25,8.16L90.25,8.16z M7.3,18.49 l0.58-0.09l2.47-7.05h1.67l2.45,7.05l0.57,0.09v0.97h-2.76v-0.97l0.56-0.1l-0.36-1.12H9.86L9.5,18.39l0.56,0.1v0.97H7.3V18.49 L7.3,18.49L7.3,18.49z M10.25,16.08h1.86l-0.91-2.86h-0.04L10.25,16.08L10.25,16.08L10.25,16.08z M36.38,61.79L33.44,55 c5.27,4.98,13.32,2.28,13.52-5.5c0.14-5.59-5.2-12.88-15.67-22.32C20.88,36.62,15.5,43.87,16.07,49.5 c0.69,6.83,7.56,9.95,12.85,5.5l-2.09,6.79H36.38L36.38,61.79L36.38,61.79z"/></g></svg>