<?xml version="1.0" encoding="iso-8859-1"?>
<!-- Uploaded to: SVG Repo, www.svgrepo.com, Generator: SVG Repo Mixer Tools -->
<svg height="800px" width="800px" version="1.1" id="Layer_1" xmlns="http://www.w3.org/2000/svg" xmlns:xlink="http://www.w3.org/1999/xlink" 
	 viewBox="0 0 504.123 504.123" xml:space="preserve">
<g>
	<path style="fill:#EA990A;" d="M241.073,203.768c10.027,11.28,3.663,33.304-14.218,49.223
		c-17.881,15.896-114.018,85.024-124.062,73.767c-10.012-11.296,69.892-98.714,87.773-114.609
		C208.431,196.254,231.046,192.496,241.073,203.768z"/>
	<path style="fill:#EA990A;" d="M263.05,203.768c-10.027,11.28-3.663,33.304,14.218,49.223
		c17.881,15.896,114.018,85.024,124.062,73.767c10.012-11.296-69.892-98.714-87.773-114.609
		C295.692,196.254,273.077,192.496,263.05,203.768z"/>
	<path style="fill:#EA990A;" d="M346.569,361.913c0,19.503-15.817,124.668-35.336,124.668c-19.495,0-35.304-105.173-35.304-124.668
		c0-19.495,15.817-35.32,35.304-35.32C330.752,326.593,346.569,342.418,346.569,361.913z"/>
	<path style="fill:#EA990A;" d="M228.218,361.913c0,19.503-15.817,124.668-35.336,124.668c-19.495,0-35.304-105.173-35.304-124.668
		c0-19.495,15.817-35.32,35.304-35.32C212.401,326.593,228.218,342.418,228.218,361.913z"/>
</g>
<path style="fill:#EFC206;" d="M351.705,315.242c0,126.33-44.599,84.259-99.643,84.259c-55.028,0-99.643,42.071-99.643-84.259
	c0-72.231,44.631-130.781,99.643-130.781C307.09,184.47,351.705,243.019,351.705,315.242z"/>
<g>
	<path style="fill:#1267CC;" d="M165.904,422.085c5.506,27.301,13.32,54.705,22.166,62.354h9.602
		c8.862-7.648,16.691-35.052,22.189-62.354H165.904z"/>
	<path style="fill:#1267CC;" d="M284.262,422.085c5.506,27.301,13.32,54.705,22.166,62.354h9.602
		c8.869-7.648,16.691-35.052,22.181-62.354H284.262z"/>
</g>
<path style="fill:#2289EF;" d="M232.629,487.219c0,14.935-17.802,16.904-39.739,16.904s-39.739-1.961-39.739-16.904
	c0-14.943,17.802-35.509,39.739-35.509S232.629,472.277,232.629,487.219z"/>
<path style="fill:#1267CC;" d="M232.629,487.219c0,14.935-17.802,16.904-39.739,16.904s-39.739-1.961-39.739-16.904"/>
<path style="fill:#2289EF;" d="M350.988,487.219c0,14.935-17.802,16.904-39.739,16.904s-39.739-1.961-39.739-16.904
	c0-14.943,17.802-35.509,39.739-35.509S350.988,472.277,350.988,487.219z"/>
<path style="fill:#1267CC;" d="M350.988,487.219c0,14.935-17.802,16.904-39.739,16.904s-39.739-1.961-39.739-16.904"/>
<path style="fill:#EFC206;" d="M381.015,124.258c0,63.008-57.738,94.681-128.937,94.681c-71.215,0-128.969-31.673-128.969-94.681
	C123.108,61.235,180.862,0,252.077,0C323.277,0,381.015,61.235,381.015,124.258z"/>
<path style="fill:#EA990A;" d="M381.015,124.258c0,63.008-57.738,100.391-128.937,100.391c-71.215,0-128.969-37.384-128.969-100.391
	"/>
<g>
	<polygon style="fill:#020200;" points="253.046,178.538 253.046,90.908 105.354,5.246 111.262,114.538 	"/>
	<polygon style="fill:#020200;" points="251.077,178.538 251.077,90.908 398.769,5.246 392.862,114.538 	"/>
</g>
<g>
	<path style="fill:#1267CC;" d="M122.982,287.744c-14.36,18.723-24.08,34.627-20.181,39.014c3.82,4.285,20.141-3.096,39.849-14.738
		l2.308-2.308L122.982,287.744z"/>
	<path style="fill:#1267CC;" d="M358.432,310.209c21.063,12.674,38.88,21.063,42.89,16.557c3.907-4.403-5.876-20.378-20.291-39.156
		L358.432,310.209z"/>
</g>
<path style="fill:#CE1332;" d="M157.46,372.185h189.204c1.646-6.774,2.907-14.785,3.757-24.292H153.71
	C154.553,357.4,155.813,365.41,157.46,372.185z"/>
<path style="fill:#E0B373;" d="M197.183,147.85v63.354l1.481,0.851c16.289,4.537,34.336,6.884,53.413,6.884
	c19.046,0,37.085-2.347,53.366-6.869l1.489-0.866V147.85l-54.871,25.442L197.183,147.85z"/>
<path style="fill:#F4CB89;" d="M197.183,162.619v48.585l1.481,0.851c16.289,4.537,34.336,6.884,53.413,6.884
	c19.046,0,37.085-2.347,53.366-6.869l1.489-0.866v-48.585l-54.879,25.442L197.183,162.619z"/>
<polygon style="fill:#EBF0F2;" points="222.192,137.846 174.931,112.916 198.561,93.223 224.815,118.154 "/>
<polygon style="fill:#ADB9BC;" points="222.192,137.846 174.931,112.916 198.561,118.823 224.815,118.154 "/>
<polygon style="fill:#EBF0F2;" points="281.931,137.846 329.192,112.916 305.562,93.223 279.308,118.154 "/>
<polygon style="fill:#ADB9BC;" points="281.931,137.846 329.192,112.916 305.562,118.823 279.308,118.154 "/>
<g>
	<path style="fill:#020200;" d="M157.783,273.187c-3.434,13.217-5.372,27.325-5.372,42.063c0,10.949,0.354,20.543,1,29.097
		l48.451-16.636l-28.672-9.846l28.672-9.846l-28.672-9.846l28.672-9.846L157.783,273.187z"/>
	<path style="fill:#020200;" d="M350.704,344.348c0.646-8.554,1-18.156,1-29.097c0-14.738-1.938-28.845-5.372-42.063l-44.087,15.139
		l28.664,9.846l-28.664,9.846l28.664,9.846l-28.664,9.846L350.704,344.348z"/>
	<polygon style="fill:#020200;" points="61.818,324.545 72.814,324.545 72.814,335.541 12.296,385.079 	"/>
	<polygon style="fill:#020200;" points="76.556,339.275 87.552,339.275 87.536,350.271 27.018,399.801 	"/>
	<polygon style="fill:#020200;" points="91.278,354.005 102.274,354.005 102.274,365.001 41.756,414.539 	"/>
</g>
<circle style="fill:#1267CC;" cx="92.759" cy="331.492" r="34.792"/>
<g>
	<polygon style="fill:#020200;" points="442.305,324.545 431.309,324.545 431.309,335.541 491.827,385.079 	"/>
	<polygon style="fill:#020200;" points="427.567,339.275 416.571,339.275 416.587,350.271 477.105,399.801 	"/>
	<polygon style="fill:#020200;" points="412.845,354.005 401.849,354.005 401.849,365.001 462.368,414.539 	"/>
</g>
<circle style="fill:#1267CC;" cx="411.364" cy="331.492" r="34.792"/>
</svg>