<?xml version="1.0" encoding="utf-8"?><svg version="1.1" id="Layer_1" xmlns="http://www.w3.org/2000/svg" xmlns:xlink="http://www.w3.org/1999/xlink" x="0px" y="0px" viewBox="0 0 78.89 122.88" style="enable-background:new 0 0 78.89 122.88" xml:space="preserve"><style type="text/css">.st0{fill-rule:evenodd;clip-rule:evenodd;}</style><g><path class="st0" d="M9.59,64.63l0.67-1.5c1.56-3.51,1.11-2.38,4.93-0.7c15.34,6.77,31.2,7.28,47.99,0.22 c3.43-1.44,3.8-2.98,5.26-0.04l0.6,1.21c1.21,2.45,1.56,2.01-0.31,4.08c-1.46,1.62-3.07,2.98-4.82,4.1 c-5.1,1.1-10.21,1.44-15.31,0.74l-0.73-1.66c-0.67-1.52-0.48-1.07-2.23-0.79c-4.07,0.66-8.15,0.73-12.22,0.02 c-2.27-0.39-1.81-0.89-2.7,1.21l-0.66,1.55c-5.09-0.08-10.04-0.42-14.77-1.21c-1.84-1.27-3.56-2.66-5.1-4.23 C8.69,66.1,8.76,66.51,9.59,64.63L9.59,64.63z M1.48,43.66C1.9,33.38,2.91,24.83,4.67,18.47c1.25-4.51,1.32-5.27,4.96-8 c4.98-3.72,10.3-6.66,16.11-8.47c10.55-3.29,22.75-2.44,32.9,1.84C61.37,5,63.99,6.44,66.5,8.18c4.59,3.19,5.43,3.67,7.08,8.78 l0.63,1.95c0.74,2.29,0.81,3.86,1.06,6.24l2.05,19.38c2.26,2.52,1.41,5.11,1.41,8.62v11.87c0,5.74,0.66,5.04-2.51,9.79 c-0.7,16.02-7.23,34.06-24.24,45.67c-3.89,2.66-3.53,2.4-8.12,2.4H33.8c-4.37,0-4.76-0.72-8.36-3.43 c-5.98-4.51-10.73-10.05-14.45-16.47c-4.81-8.3-5.73-13.22-7.49-22.3l-0.69-6.04c-3.05-4.47-2.73-3.43-2.73-8.84V52.07 C0.09,48.03-0.52,47.16,1.48,43.66L1.48,43.66z M50.1,29.02l2.53-18.14c5.45,0.92,10.5,2.28,14.67,5.74 c5.21,4.33,5.05,5.72,4.82,11.77l-1.05,26.79l1.77,5.8c0.79,2.6,1.55,4.37,1.53,7.13c-0.02,2.32-0.49,4.49-1.46,6.47 c-3.54,9.07-11.93,18.02-12.76,29.45l-3.5,3.93l-3.32-3.15H25.66l-3,3.06l-3.76-3.76C18.33,92.55,7.84,81.08,5.62,73.19 c-1.34-3.35-1.15-6.81-0.17-10.31l2.36-8.04L6.77,27.65c-0.18-4.69-0.83-5.34,2.6-9.02c4.19-4.49,10.27-6.65,17.12-7.84l2.03,15.59 l1.29,9.93c0.18,1.79,0.71,3.22,1.58,4.27c0.8,0.97,1.91,1.61,3.31,1.93h9.7c1.45-0.27,2.54-0.94,3.3-1.97 C49.29,38.43,49.71,31.87,50.1,29.02L50.1,29.02z M17.28,109.35l1.25-3.41l4.72,4.92l2.21-1.91c2.8-2.43,2.05-2,5.78-2h15.82 c4.04,0,3.5-0.58,6.59,1.94l2.24,1.82l4.57-5.27l1.66,4.17l-8.69,7.88l-1.88-1.19c-2.91-1.84-2.67-1.42-6.13-1.42H33.07 c-3.61,0-3.2-0.32-6.3,1.5l-1.81,1.06L17.28,109.35L17.28,109.35z M66.95,66.55l-1.01-2.29c-5,2.44-10.73,3.94-16.91,4.88 c-0.91,0.14-0.84-0.02-0.38,0.78l0.9,1.56C57.96,71.33,64.48,70.11,66.95,66.55L66.95,66.55z M11.93,66.48l1.01-2.29 c4.75,2.32,10.17,3.79,16,4.74c1.64,0.26,1.88-0.11,1.12,1.2l-0.74,1.28C20.91,71.27,14.4,70.04,11.93,66.48L11.93,66.48z"/></g></svg>