<svg width="71" height="38" viewBox="0 0 71 38" fill="none" xmlns="http://www.w3.org/2000/svg">
<path d="M8.52 10.82C9.02667 10.9 9.48667 11.1067 9.9 11.44C10.3267 11.7733 10.66 12.1867 10.9 12.68C11.1533 13.1733 11.28 13.7 11.28 14.26C11.28 14.9667 11.1 15.6067 10.74 16.18C10.38 16.74 9.85333 17.1867 9.16 17.52C8.48 17.84 7.67333 18 6.74 18H1.54V4.06H6.54C7.48667 4.06 8.29333 4.22 8.96 4.54C9.62667 4.84667 10.1267 5.26667 10.46 5.8C10.7933 6.33333 10.96 6.93333 10.96 7.6C10.96 8.42667 10.7333 9.11333 10.28 9.66C9.84 10.1933 9.25333 10.58 8.52 10.82ZM3.36 10.08H6.42C7.27333 10.08 7.93333 9.88 8.4 9.48C8.86667 9.08 9.1 8.52667 9.1 7.82C9.1 7.11333 8.86667 6.56 8.4 6.16C7.93333 5.76 7.26 5.56 6.38 5.56H3.36V10.08ZM6.58 16.5C7.48667 16.5 8.19333 16.2867 8.7 15.86C9.20667 15.4333 9.46 14.84 9.46 14.08C9.46 13.3067 9.19333 12.7 8.66 12.26C8.12667 11.8067 7.41333 11.58 6.52 11.58H3.36V16.5H6.58ZM14.7456 5.26C14.399 5.26 14.1056 5.14 13.8656 4.9C13.6256 4.66 13.5056 4.36667 13.5056 4.02C13.5056 3.67333 13.6256 3.38 13.8656 3.14C14.1056 2.9 14.399 2.78 14.7456 2.78C15.079 2.78 15.359 2.9 15.5856 3.14C15.8256 3.38 15.9456 3.67333 15.9456 4.02C15.9456 4.36667 15.8256 4.66 15.5856 4.9C15.359 5.14 15.079 5.26 14.7456 5.26ZM15.6256 7.04V18H13.8056V7.04H15.6256ZM18.0475 12.48C18.0475 11.36 18.2742 10.38 18.7275 9.54C19.1808 8.68667 19.8008 8.02667 20.5875 7.56C21.3875 7.09333 22.2808 6.86 23.2675 6.86C24.1208 6.86 24.9142 7.06 25.6475 7.46C26.3808 7.84667 26.9408 8.36 27.3275 9V3.2H29.1675V18H27.3275V15.94C26.9675 16.5933 26.4342 17.1333 25.7275 17.56C25.0208 17.9733 24.1942 18.18 23.2475 18.18C22.2742 18.18 21.3875 17.94 20.5875 17.46C19.8008 16.98 19.1808 16.3067 18.7275 15.44C18.2742 14.5733 18.0475 13.5867 18.0475 12.48ZM27.3275 12.5C27.3275 11.6733 27.1608 10.9533 26.8275 10.34C26.4942 9.72667 26.0408 9.26 25.4675 8.94C24.9075 8.60667 24.2875 8.44 23.6075 8.44C22.9275 8.44 22.3075 8.6 21.7475 8.92C21.1875 9.24 20.7408 9.70667 20.4075 10.32C20.0742 10.9333 19.9075 11.6533 19.9075 12.48C19.9075 13.32 20.0742 14.0533 20.4075 14.68C20.7408 15.2933 21.1875 15.7667 21.7475 16.1C22.3075 16.42 22.9275 16.58 23.6075 16.58C24.2875 16.58 24.9075 16.42 25.4675 16.1C26.0408 15.7667 26.4942 15.2933 26.8275 14.68C27.1608 14.0533 27.3275 13.3267 27.3275 12.5Z" fill="black"/>
<path d="M8.52 27.82C9.02667 27.9 9.48667 28.1067 9.9 28.44C10.3267 28.7733 10.66 29.1867 10.9 29.68C11.1533 30.1733 11.28 30.7 11.28 31.26C11.28 31.9667 11.1 32.6067 10.74 33.18C10.38 33.74 9.85333 34.1867 9.16 34.52C8.48 34.84 7.67333 35 6.74 35H1.54V21.06H6.54C7.48667 21.06 8.29333 21.22 8.96 21.54C9.62667 21.8467 10.1267 22.2667 10.46 22.8C10.7933 23.3333 10.96 23.9333 10.96 24.6C10.96 25.4267 10.7333 26.1133 10.28 26.66C9.84 27.1933 9.25333 27.58 8.52 27.82ZM3.36 27.08H6.42C7.27333 27.08 7.93333 26.88 8.4 26.48C8.86667 26.08 9.1 25.5267 9.1 24.82C9.1 24.1133 8.86667 23.56 8.4 23.16C7.93333 22.76 7.26 22.56 6.38 22.56H3.36V27.08ZM6.58 33.5C7.48667 33.5 8.19333 33.2867 8.7 32.86C9.20667 32.4333 9.46 31.84 9.46 31.08C9.46 30.3067 9.19333 29.7 8.66 29.26C8.12667 28.8067 7.41333 28.58 6.52 28.58H3.36V33.5H6.58ZM13.1256 29.48C13.1256 28.36 13.3523 27.38 13.8056 26.54C14.259 25.6867 14.879 25.0267 15.6656 24.56C16.4656 24.0933 17.3523 23.86 18.3256 23.86C19.2856 23.86 20.119 24.0667 20.8256 24.48C21.5323 24.8933 22.059 25.4133 22.4056 26.04V24.04H24.2456V35H22.4056V32.96C22.0456 33.6 21.5056 34.1333 20.7856 34.56C20.079 34.9733 19.2523 35.18 18.3056 35.18C17.3323 35.18 16.4523 34.94 15.6656 34.46C14.879 33.98 14.259 33.3067 13.8056 32.44C13.3523 31.5733 13.1256 30.5867 13.1256 29.48ZM22.4056 29.5C22.4056 28.6733 22.239 27.9533 21.9056 27.34C21.5723 26.7267 21.119 26.26 20.5456 25.94C19.9856 25.6067 19.3656 25.44 18.6856 25.44C18.0056 25.44 17.3856 25.6 16.8256 25.92C16.2656 26.24 15.819 26.7067 15.4856 27.32C15.1523 27.9333 14.9856 28.6533 14.9856 29.48C14.9856 30.32 15.1523 31.0533 15.4856 31.68C15.819 32.2933 16.2656 32.7667 16.8256 33.1C17.3856 33.42 18.0056 33.58 18.6856 33.58C19.3656 33.58 19.9856 33.42 20.5456 33.1C21.119 32.7667 21.5723 32.2933 21.9056 31.68C22.239 31.0533 22.4056 30.3267 22.4056 29.5ZM28.6813 33.5H34.0613V35H26.6013V33.5L31.9213 25.52H26.6413V24.04H34.0213V25.52L28.6813 33.5ZM35.7428 29.48C35.7428 28.36 35.9695 27.38 36.4228 26.54C36.8761 25.6867 37.4961 25.0267 38.2828 24.56C39.0828 24.0933 39.9695 23.86 40.9428 23.86C41.9028 23.86 42.7361 24.0667 43.4428 24.48C44.1495 24.8933 44.6761 25.4133 45.0228 26.04V24.04H46.8628V35H45.0228V32.96C44.6628 33.6 44.1228 34.1333 43.4028 34.56C42.6961 34.9733 41.8695 35.18 40.9228 35.18C39.9495 35.18 39.0695 34.94 38.2828 34.46C37.4961 33.98 36.8761 33.3067 36.4228 32.44C35.9695 31.5733 35.7428 30.5867 35.7428 29.48ZM45.0228 29.5C45.0228 28.6733 44.8561 27.9533 44.5228 27.34C44.1895 26.7267 43.7361 26.26 43.1628 25.94C42.6028 25.6067 41.9828 25.44 41.3028 25.44C40.6228 25.44 40.0028 25.6 39.4428 25.92C38.8828 26.24 38.4361 26.7067 38.1028 27.32C37.7695 27.9333 37.6028 28.6533 37.6028 29.48C37.6028 30.32 37.7695 31.0533 38.1028 31.68C38.4361 32.2933 38.8828 32.7667 39.4428 33.1C40.0028 33.42 40.6228 33.58 41.3028 33.58C41.9828 33.58 42.6028 33.42 43.1628 33.1C43.7361 32.7667 44.1895 32.2933 44.5228 31.68C44.8561 31.0533 45.0228 30.3267 45.0228 29.5ZM49.2584 29.48C49.2584 28.36 49.4851 27.38 49.9384 26.54C50.3918 25.6867 51.0118 25.0267 51.7984 24.56C52.5984 24.0933 53.4851 23.86 54.4584 23.86C55.4184 23.86 56.2518 24.0667 56.9584 24.48C57.6651 24.8933 58.1918 25.4133 58.5384 26.04V24.04H60.3784V35H58.5384V32.96C58.1784 33.6 57.6384 34.1333 56.9184 34.56C56.2118 34.9733 55.3851 35.18 54.4384 35.18C53.4651 35.18 52.5851 34.94 51.7984 34.46C51.0118 33.98 50.3918 33.3067 49.9384 32.44C49.4851 31.5733 49.2584 30.5867 49.2584 29.48ZM58.5384 29.5C58.5384 28.6733 58.3718 27.9533 58.0384 27.34C57.7051 26.7267 57.2518 26.26 56.6784 25.94C56.1184 25.6067 55.4984 25.44 54.8184 25.44C54.1384 25.44 53.5184 25.6 52.9584 25.92C52.3984 26.24 51.9518 26.7067 51.6184 27.32C51.2851 27.9333 51.1184 28.6533 51.1184 29.48C51.1184 30.32 51.2851 31.0533 51.6184 31.68C51.9518 32.2933 52.3984 32.7667 52.9584 33.1C53.5184 33.42 54.1384 33.58 54.8184 33.58C55.4984 33.58 56.1184 33.42 56.6784 33.1C57.2518 32.7667 57.7051 32.2933 58.0384 31.68C58.3718 31.0533 58.5384 30.3267 58.5384 29.5ZM65.2741 25.82C65.5941 25.1933 66.0474 24.7067 66.6341 24.36C67.2341 24.0133 67.9607 23.84 68.8141 23.84V25.72H68.3341C66.2941 25.72 65.2741 26.8267 65.2741 29.04V35H63.4541V24.04H65.2741V25.82Z" fill="#724747"/>
<g clip-path="url(#clip0_2_2)">
<path d="M49.7499 8.32447L48.8996 7.47418C48.7895 7.36414 48.6433 7.30357 48.4877 7.30357C48.3321 7.30357 48.1859 7.36414 48.0759 7.47418L48.0626 7.48747L45.4851 4.90999L45.4984 4.8967C45.6084 4.7867 45.669 4.64041 45.669 4.48485C45.669 4.32928 45.6084 4.183 45.4984 4.07299L44.6481 3.2227C44.421 2.99559 44.0514 2.99563 43.8244 3.2227L41.6987 5.34843C41.4716 5.5755 41.4716 5.94503 41.6987 6.17214L42.549 7.02243C42.7761 7.24953 43.1456 7.24953 43.3727 7.02243L43.386 7.00914L43.8377 7.46086L43.3993 7.89929C43.2892 8.00933 43.2286 8.15558 43.2286 8.31115C43.2286 8.36645 43.2366 8.42045 43.2514 8.4722L36.2586 15.465C36.0919 15.6317 36 15.8535 36 16.0894C36 16.3252 36.0919 16.547 36.2586 16.7138C36.4308 16.886 36.6569 16.972 36.8831 16.972C37.1093 16.972 37.3354 16.8859 37.5075 16.7138L44.5003 9.72105C44.552 9.73585 44.606 9.74387 44.6613 9.74387C44.8169 9.74387 44.9632 9.6833 45.0732 9.57326L45.5116 9.13482L45.9634 9.58655L45.9501 9.5998C45.8401 9.70984 45.7794 9.85609 45.7794 10.0117C45.7794 10.1672 45.84 10.3135 45.9501 10.4235L46.8004 11.2738C46.9104 11.3839 47.0566 11.4445 47.2122 11.4445C47.3678 11.4445 47.5141 11.3839 47.6241 11.2739L49.7498 9.14815C49.8599 9.03811 49.9205 8.89186 49.9205 8.73629C49.9205 8.58073 49.8599 8.43444 49.7499 8.32447ZM37.1089 16.3153C36.9844 16.4398 36.7818 16.4398 36.6572 16.3153C36.5969 16.2549 36.5636 16.1747 36.5636 16.0894C36.5636 16.0041 36.5968 15.9239 36.6572 15.8636L43.5985 8.92227L44.0502 9.37399L37.1089 16.3153ZM44.6746 9.17476C44.6733 9.17613 44.6691 9.18025 44.6613 9.18025C44.6536 9.18025 44.6494 9.1761 44.6481 9.17476L43.7977 8.3244C43.7964 8.32307 43.7922 8.31892 43.7922 8.31115C43.7922 8.30338 43.7964 8.29923 43.7977 8.29786L44.2362 7.85943L45.1131 8.73633L44.6746 9.17476ZM49.3513 8.74955L47.2255 10.8753C47.2241 10.8766 47.22 10.8808 47.2122 10.8808C47.2045 10.8808 47.2003 10.8766 47.199 10.8753L46.3486 10.025C46.3473 10.0236 46.3432 10.0195 46.3432 10.0117C46.3432 10.004 46.3473 9.99981 46.3487 9.99844L46.5613 9.78585C46.6713 9.67577 46.6713 9.49732 46.5613 9.38728L43.7845 6.6105L44.4355 5.95951C44.5456 5.84944 44.5456 5.67098 44.4355 5.56094C44.3254 5.45087 44.147 5.45087 44.0369 5.56094L42.974 6.62386C42.9667 6.63114 42.9548 6.63114 42.9474 6.62386L42.0971 5.77357C42.0898 5.76626 42.0898 5.7543 42.0971 5.74696L44.2229 3.62123C44.2302 3.61389 44.2421 3.61392 44.2495 3.62123L45.0998 4.47152C45.1071 4.47884 45.1071 4.49075 45.0998 4.4981C45.0998 4.4981 44.902 4.69592 44.8882 4.70964C44.8866 4.71122 44.885 4.71283 44.8835 4.71445C44.7769 4.82509 44.7786 5.00066 44.8872 5.10926L47.664 7.88604L47.0129 8.53706C46.9579 8.59208 46.9304 8.66422 46.9304 8.73633C46.9304 8.80843 46.9579 8.88061 47.0129 8.93559C47.123 9.04567 47.3015 9.04567 47.4115 8.93559L48.4744 7.87268C48.4758 7.87134 48.4799 7.86719 48.4877 7.86719C48.4954 7.86719 48.4996 7.87134 48.501 7.87268L49.3513 8.72297C49.3526 8.7243 49.3567 8.72849 49.3567 8.73626C49.3567 8.74403 49.3526 8.74814 49.3513 8.74955Z" fill="#58BCD2"/>
<path d="M53.9916 18.5975L53.8048 17.8504C53.7064 17.4565 53.3541 17.1815 52.9481 17.1815H52.7975V16.5614C52.7975 16.2402 52.5362 15.979 52.215 15.979H48.0062C47.6851 15.979 47.4238 16.2402 47.4238 16.5614V17.1815H47.2732C46.8672 17.1815 46.5149 17.4565 46.4164 17.8504L46.2297 18.5975C46.2086 18.6816 46.2275 18.7709 46.2809 18.8393C46.3344 18.9077 46.4163 18.9477 46.5031 18.9477H53.7181C53.8049 18.9477 53.8869 18.9077 53.9403 18.8393C53.9937 18.7709 54.0126 18.6816 53.9916 18.5975ZM46.8641 18.384L46.9633 17.9871C46.9989 17.8446 47.1264 17.7451 47.2732 17.7451H48.3068C48.4625 17.7451 48.5887 17.6189 48.5887 17.4633C48.5887 17.3076 48.4625 17.1814 48.3068 17.1814H47.9874V16.5614C47.9874 16.551 47.9958 16.5426 48.0062 16.5426H52.215C52.2253 16.5426 52.2337 16.551 52.2337 16.5614V17.1814H49.5092C49.3535 17.1814 49.2273 17.3076 49.2273 17.4633C49.2273 17.6189 49.3535 17.7451 49.5092 17.7451H52.9481C53.0949 17.7451 53.2223 17.8446 53.2579 17.9871L53.3571 18.384H46.8641Z" fill="#58BCD2"/>
<path d="M50.1107 13.2733C49.955 13.2733 49.8288 13.3995 49.8288 13.5552V15.0583C49.8288 15.214 49.955 15.3402 50.1107 15.3402C50.2663 15.3402 50.3925 15.214 50.3925 15.0583V13.5552C50.3925 13.3995 50.2663 13.2733 50.1107 13.2733Z" fill="#58BCD2"/>
<path d="M51.7398 14.205C51.6006 14.1353 51.4313 14.1918 51.3617 14.331L51.0611 14.9323C50.9914 15.0714 51.0479 15.2408 51.1871 15.3104C51.2276 15.3306 51.2706 15.3402 51.3129 15.3402C51.4163 15.3402 51.5159 15.2831 51.5652 15.1843L51.8659 14.5831C51.9355 14.4439 51.8791 14.2746 51.7398 14.205Z" fill="#58BCD2"/>
<path d="M49.1602 14.9323L48.8596 14.331C48.79 14.1918 48.6207 14.1353 48.4815 14.205C48.3423 14.2746 48.2858 14.4439 48.3555 14.5831L48.6561 15.1843C48.7054 15.2831 48.805 15.3402 48.9084 15.3402C48.9508 15.3402 48.9937 15.3306 49.0342 15.3104C49.1734 15.2408 49.2299 15.0715 49.1602 14.9323Z" fill="#58BCD2"/>
</g>
<defs>
<clipPath id="clip0_2_2">
<rect width="18" height="18" fill="white" transform="translate(36 2)"/>
</clipPath>
</defs>
</svg>
