<svg width="800" height="800" viewBox="0 0 800 800" fill="none" xmlns="http://www.w3.org/2000/svg">
    <path
        d="M133.333 700C133.333 571.133 237.8 466.667 366.667 466.667C377.983 466.667 389.113 467.473 400 469.03M500 233.333C500 306.971 440.303 366.667 366.667 366.667C293.029 366.667 233.333 306.971 233.333 233.333C233.333 159.695 293.029 100 366.667 100C440.303 100 500 159.695 500 233.333ZM419.66 700L487.16 686.5C493.047 685.323 495.99 684.733 498.733 683.657C501.17 682.703 503.483 681.463 505.63 679.967C508.047 678.28 510.17 676.16 514.413 671.913L652.993 533.333C671.403 514.923 671.403 485.077 652.993 466.667C634.587 448.257 604.737 448.257 586.327 466.667L447.747 605.247C443.503 609.493 441.38 611.613 439.693 614.033C438.197 616.177 436.96 618.493 436.003 620.93C434.927 623.673 434.34 626.617 433.16 632.5L419.66 700Z"
        stroke="#6A7171" stroke-width="66.6667" stroke-linecap="round" stroke-linejoin="round" />
</svg>